<svg width="1038" height="172" viewBox="0 0 1038 172" fill="none" xmlns="http://www.w3.org/2000/svg">
<g filter="url(#filter0_d_7_22)">
<rect x="-0.135315" width="1038.14" height="172" fill="#7D41E1"/>
<rect x="-0.635315" y="-0.5" width="1039.14" height="173" stroke="black"/>
</g>
<path d="M-27 22.5C6.22937 107.329 56.6206 172.938 103.338 180.51C239 202.5 293.197 -29.1185 379.745 -25.9648C512.159 -21.1398 532.766 233.626 711.032 180.51C823.5 147 863.052 -20.5 928 -20.5C1037.25 -20.5 1055 137.5 1055 137.5" stroke="#D8CACA" stroke-opacity="0.2" stroke-width="15" stroke-linecap="round"/>
<path d="M222.173 91.5C222.173 97.8217 216.874 103 210.271 103C203.667 103 198.368 97.8217 198.368 91.5C198.368 85.1783 203.667 80 210.271 80C216.874 80 222.173 85.1783 222.173 91.5Z" stroke="#2DAAFC" stroke-width="2"/>
<path d="M856.368 91.5C856.368 97.8217 851.07 103 844.466 103C837.863 103 832.564 97.8217 832.564 91.5C832.564 85.1783 837.863 80 844.466 80C851.07 80 856.368 85.1783 856.368 91.5Z" stroke="#2DAAFC" stroke-width="2"/>
<path d="M479.49 103V82H489.75C492.39 82 494.37 82.5 495.69 83.5C497.03 84.5 497.7 85.82 497.7 87.46C497.7 88.56 497.43 89.52 496.89 90.34C496.35 91.14 495.61 91.76 494.67 92.2C493.73 92.64 492.65 92.86 491.43 92.86L492 91.63C493.32 91.63 494.49 91.85 495.51 92.29C496.53 92.71 497.32 93.34 497.88 94.18C498.46 95.02 498.75 96.05 498.75 97.27C498.75 99.07 498.04 100.48 496.62 101.5C495.2 102.5 493.11 103 490.35 103H479.49ZM484.32 99.34H489.99C491.25 99.34 492.2 99.14 492.84 98.74C493.5 98.32 493.83 97.66 493.83 96.76C493.83 95.88 493.5 95.23 492.84 94.81C492.2 94.37 491.25 94.15 489.99 94.15H483.96V90.61H489.15C490.33 90.61 491.23 90.41 491.85 90.01C492.49 89.59 492.81 88.96 492.81 88.12C492.81 87.3 492.49 86.69 491.85 86.29C491.23 85.87 490.33 85.66 489.15 85.66H484.32V99.34ZM502.099 103V80.74H506.779V103H502.099ZM518.803 103.24C517.083 103.24 515.553 102.88 514.213 102.16C512.893 101.44 511.843 100.46 511.063 99.22C510.303 97.96 509.923 96.53 509.923 94.93C509.923 93.31 510.303 91.88 511.063 90.64C511.843 89.38 512.893 88.4 514.213 87.7C515.553 86.98 517.083 86.62 518.803 86.62C520.503 86.62 522.023 86.98 523.363 87.7C524.703 88.4 525.753 89.37 526.513 90.61C527.273 91.85 527.653 93.29 527.653 94.93C527.653 96.53 527.273 97.96 526.513 99.22C525.753 100.46 524.703 101.44 523.363 102.16C522.023 102.88 520.503 103.24 518.803 103.24ZM518.803 99.4C519.583 99.4 520.283 99.22 520.903 98.86C521.523 98.5 522.013 97.99 522.373 97.33C522.733 96.65 522.913 95.85 522.913 94.93C522.913 93.99 522.733 93.19 522.373 92.53C522.013 91.87 521.523 91.36 520.903 91C520.283 90.64 519.583 90.46 518.803 90.46C518.023 90.46 517.323 90.64 516.703 91C516.083 91.36 515.583 91.87 515.203 92.53C514.843 93.19 514.663 93.99 514.663 94.93C514.663 95.85 514.843 96.65 515.203 97.33C515.583 97.99 516.083 98.5 516.703 98.86C517.323 99.22 518.023 99.4 518.803 99.4ZM538.371 109.06C536.851 109.06 535.381 108.87 533.961 108.49C532.561 108.13 531.391 107.58 530.451 106.84L532.311 103.48C532.991 104.04 533.851 104.48 534.891 104.8C535.951 105.14 536.991 105.31 538.011 105.31C539.671 105.31 540.871 104.94 541.611 104.2C542.371 103.46 542.751 102.36 542.751 100.9V98.47L543.051 94.42L542.991 90.34V86.86H547.431V100.3C547.431 103.3 546.651 105.51 545.091 106.93C543.531 108.35 541.291 109.06 538.371 109.06ZM537.651 102.22C536.151 102.22 534.791 101.9 533.571 101.26C532.371 100.6 531.401 99.69 530.661 98.53C529.941 97.35 529.581 95.98 529.581 94.42C529.581 92.84 529.941 91.47 530.661 90.31C531.401 89.13 532.371 88.22 533.571 87.58C534.791 86.94 536.151 86.62 537.651 86.62C539.011 86.62 540.211 86.9 541.251 87.46C542.291 88 543.101 88.85 543.681 90.01C544.261 91.15 544.551 92.62 544.551 94.42C544.551 96.2 544.261 97.67 543.681 98.83C543.101 99.97 542.291 100.82 541.251 101.38C540.211 101.94 539.011 102.22 537.651 102.22ZM538.581 98.38C539.401 98.38 540.131 98.22 540.771 97.9C541.411 97.56 541.911 97.09 542.271 96.49C542.631 95.89 542.811 95.2 542.811 94.42C542.811 93.62 542.631 92.93 542.271 92.35C541.911 91.75 541.411 91.29 540.771 90.97C540.131 90.63 539.401 90.46 538.581 90.46C537.761 90.46 537.031 90.63 536.391 90.97C535.751 91.29 535.241 91.75 534.861 92.35C534.501 92.93 534.321 93.62 534.321 94.42C534.321 95.2 534.501 95.89 534.861 96.49C535.241 97.09 535.751 97.56 536.391 97.9C537.031 98.22 537.761 98.38 538.581 98.38Z" fill="white"/>
<line x1="468.589" y1="78.0882" x2="453.088" y2="64.4115" stroke="white" stroke-width="2" stroke-linecap="round"/>
<line x1="468.896" y1="91.8835" x2="461.883" y2="91.1043" stroke="white" stroke-width="2" stroke-linecap="round"/>
<line x1="478" y1="74" x2="478" y2="64" stroke="white" stroke-width="2" stroke-linecap="round"/>
<path d="M572 116.067C589.443 115.486 597.099 105.95 595.4 103.119C592.484 102.035 589.355 108.647 588.8 111.135C586.819 120.012 597.937 122.697 607.4 117.917C616.863 113.137 616.4 108.668 616.4 106.819C616.4 103.736 609.008 112.787 613.4 117.301C617 121 623 121 623 121C624.2 121 628.4 121 632 117.301" stroke="#2DAAFC" stroke-width="2" stroke-linecap="round"/>
<defs>
<filter id="filter0_d_7_22" x="-5.13531" y="-1" width="1048.14" height="182" filterUnits="userSpaceOnUse" color-interpolation-filters="sRGB">
<feFlood flood-opacity="0" result="BackgroundImageFix"/>
<feColorMatrix in="SourceAlpha" type="matrix" values="0 0 0 0 0 0 0 0 0 0 0 0 0 0 0 0 0 0 127 0" result="hardAlpha"/>
<feOffset dy="4"/>
<feGaussianBlur stdDeviation="2"/>
<feComposite in2="hardAlpha" operator="out"/>
<feColorMatrix type="matrix" values="0 0 0 0 0 0 0 0 0 0 0 0 0 0 0 0 0 0 0.25 0"/>
<feBlend mode="normal" in2="BackgroundImageFix" result="effect1_dropShadow_7_22"/>
<feBlend mode="normal" in="SourceGraphic" in2="effect1_dropShadow_7_22" result="shape"/>
</filter>
</defs>
</svg>
